<?xml version="1.0" encoding="utf-8"?>
<!-- Generator: Adobe Illustrator 21.0.0, SVG Export Plug-In . SVG Version: 6.00 Build 0)  -->
<svg version="1.1" id="레이어_1" xmlns="http://www.w3.org/2000/svg" xmlns:xlink="http://www.w3.org/1999/xlink" x="0px"
	 y="0px" viewBox="0 0 283.5 481.9" style="enable-background:new 0 0 283.5 481.9;" xml:space="preserve">
<style type="text/css">
	.st0{fill:#4A4E69;}
</style>
<path class="st0" d="M157.3,393c12.8-14.4,25.5-28.9,38.3-43.3c19.4-22,38.8-44,58.3-65.9c1.4-1.6,3-3.4,4.9-4.1
	c3.7-1.5,7.4-0.8,9.8,2.7c2.5,3.6,2.2,7.3-0.7,10.6c-9.1,10.4-18.3,20.8-27.4,31.1c-36.3,41.1-72.6,82.2-108.8,123.3
	c-2.8,3.2-4.4,7.5-7.1,10.7c-2.1,2.5-4.8,4.7-7.7,6.2c-2.9,1.5-6.3,2-9.6,2.6c-5.1,1.1-8-1.7-10.3-5.9c-12-22.1-24.1-44.1-36.2-66.2
	c-13.8-25.1-27.5-50.2-41.3-75.3c-4.3-7.8-4.1-9.4,1.7-16c-1.9-3.6-3.8-7.2-5.7-10.9c-2.8-5.6-1.9-10.2,2.4-12.6
	c4.5-2.5,9.3-0.7,12.2,4.9c18.6,35.4,37.1,70.7,55.7,106.1c0.7,1.4,1.5,2.8,3.3,4.1c0.3-5.2,0.7-10.4,0.7-15.7
	c1-78.6,2.1-157.3,2.9-235.9c0.4-38.5,0.5-77,0.7-115.5c0-1.3,0-2.7,0.1-4c0.3-5.2,3.3-8.5,7.8-8.7c4.4-0.2,7.6,2.4,8.6,7.4
	c2.4,12.9,5,25.8,6.8,38.8c1.1,7.7,1.6,15.5,1.3,23.3c-1.6,46-3.5,91.9-5.3,137.9c-0.2,6.2-0.6,12.3-0.1,18.5
	c1.7-14.1,3.5-28.3,5.2-42.4c4.2-35.2,8.4-70.4,12.7-105.6c1.1-8.9,2.3-17.8,3.2-26.8c0.4-4.1,1.4-7.5,5.5-9.3
	c4.3-1.8,7.4,0.3,10.8,3.5c0.7-2,1.3-3.6,1.8-5.3c2.9-9.4,5.8-18.8,8.8-28.1c1.9-5.9,5.9-8.3,10.8-6.8c4.7,1.4,6.6,6,4.8,11.9
	c-1.7,5.7-3.3,11.5-5.4,17.1c-7.2,19.2-9,39.5-12,59.6c-6.3,41.5-12.7,82.9-18.3,124.5c-3.2,23.6-5.5,47.3-7.6,71
	c-2.3,26.4-4,52.8-5.9,79.2c-0.1,1.7,0,3.5,0,6.7c1.2-2.3,1.8-3.5,2.3-4.6c13.1-29.1,26.2-58.3,39.3-87.4c0.8-1.9,2.3-3.8,3.9-4.9
	c6.5-4.6,13.4-8.8,19.9-13.3c3.9-2.7,7.7-4,11.9-0.7c3.4,2.7,3.8,6.7,1.1,12.2c-15.6,32.2-31.3,64.4-46.9,96.5
	c-0.7,1.4-1.3,2.9-2,4.4C156.8,392.7,157,392.9,157.3,393z"/>
</svg>
