<?xml version="1.0" encoding="utf-8"?>
<!-- Generator: Adobe Illustrator 21.0.0, SVG Export Plug-In . SVG Version: 6.00 Build 0)  -->
<svg version="1.1" id="레이어_1" xmlns="http://www.w3.org/2000/svg" xmlns:xlink="http://www.w3.org/1999/xlink" x="0px"
	 y="0px" viewBox="0 0 32 32" style="enable-background:new 0 0 32 32;" xml:space="preserve">
<style type="text/css">
	.st0{fill:#fff;}
</style>
<path class="st0" d="M30.6,9c-0.4-1.3-1.4-2.3-2.7-2.7c-2.4-0.7-12-0.7-12-0.7s-9.6,0-12,0.6C2.7,6.6,1.7,7.6,1.3,9
	c-0.6,2.4-0.6,7.4-0.6,7.4s0,5,0.6,7.4C1.7,25,2.7,26,4,26.4C6.4,27,16,27,16,27s9.6,0,12-0.6c1.3-0.4,2.3-1.4,2.7-2.7
	c0.6-2.4,0.6-7.4,0.6-7.4S31.3,11.3,30.6,9z M12.9,20.9v-9.2l8,4.6L12.9,20.9z"/>
</svg>
