<?xml version="1.0" encoding="utf-8"?>
<!-- Generator: Adobe Illustrator 21.0.0, SVG Export Plug-In . SVG Version: 6.00 Build 0)  -->
<svg version="1.1" id="레이어_1" xmlns="http://www.w3.org/2000/svg" xmlns:xlink="http://www.w3.org/1999/xlink" x="0px"
	 y="0px" viewBox="0 0 32 32" style="enable-background:new 0 0 32 32;" xml:space="preserve">
<style type="text/css">
	.st0{fill:#FFFFFF;}
</style>
<g id="그룹_263" transform="translate(280 930)">
	<path id="패스_130" class="st0" d="M-262.8-914.9c-0.4,0-0.7,0.3-0.7,0.7c0,0,0,0,0,0.1c0,0.4,0.3,0.7,0.7,0.7
		c0.4,0,0.7-0.3,0.7-0.7C-262-914.5-262.3-914.8-262.8-914.9C-262.7-914.9-262.7-914.9-262.8-914.9z"/>
	<path id="패스_131" class="st0" d="M-255.7-919.9c-0.7-0.7-1.6-1.1-2.6-1.1h-11.2c-2,0-3.6,1.6-3.6,3.6l0,0v5.4
		c0,2,1.6,3.6,3.6,3.6l0,0h4.1l1.2,2.4c0.1,0.2,0.2,0.2,0.4,0.2c0.1,0,0.2-0.1,0.2-0.2l1.2-2.4h4.1c2,0,3.6-1.6,3.6-3.6l0,0v-5.4
		C-254.6-918.3-255-919.3-255.7-919.9z M-269-912.4c-0.4,0-0.7-0.2-0.9-0.5l0,0v0.4h-1.1v-4.7h1.1v1.8c0.2-0.3,0.6-0.4,1-0.4
		c0.9,0,1.6,0.8,1.6,1.7c0,0,0,0,0,0.1C-267.3-913.2-268-912.5-269-912.4C-268.9-912.4-268.9-912.4-269-912.4z M-265.4-912.5h-1.1
		v-2.7c0-0.5-0.1-0.9-0.5-1v-1.1c1,0,1.6,0.7,1.6,1.9V-912.5z M-262.7-912.4c-1,0.1-1.8-0.6-1.9-1.6s0.6-1.8,1.6-1.9
		c0.1,0,0.2,0,0.3,0c1-0.1,1.8,0.7,1.9,1.6v0.1c0,1-0.8,1.7-1.7,1.7C-262.6-912.4-262.7-912.4-262.7-912.4L-262.7-912.4z
		 M-256.7-912.8c0,1.4-0.7,2-1.9,2h-0.2v-1h0.2c0.6,0,0.8-0.4,0.8-0.9v-0.2c-0.3,0.3-0.6,0.4-1,0.4c-0.9,0-1.6-0.7-1.5-1.6v-0.1
		c-0.1-0.9,0.6-1.7,1.5-1.8c0,0,0,0,0.1,0c0.4,0,0.7,0.1,0.9,0.4l0,0v-0.4h1.1V-912.8z"/>
	<path id="패스_132" class="st0" d="M-258.4-914.9c-0.4,0-0.7,0.3-0.7,0.7c0,0,0,0,0,0.1c0,0.4,0.3,0.7,0.6,0.7h0.1
		c0.4,0,0.7-0.3,0.7-0.6v-0.1C-257.7-914.5-258-914.9-258.4-914.9L-258.4-914.9z"/>
	<ellipse id="타원_2" class="st0" cx="-269.2" cy="-914.1" rx="0.7" ry="0.7"/>
</g>
</svg>
